<svg aria-hidden="true" style="position: absolute; width: 0; height: 0; overflow: hidden;" version="1.1" xmlns="http://www.w3.org/2000/svg" xmlns:xlink="http://www.w3.org/1999/xlink">
<defs>
<symbol id="nestjs" viewBox="0 0 32 32">
<path fill="#f50057" style="fill: var(--color1, #f50057)" d="M16.333 21.92c0 0-0.007-0.027-0.013-0.080 0.013 0.053 0.013 0.080 0.013 0.080z"></path>
<path fill="#f50057" style="fill: var(--color1, #f50057)" d="M18.25 5.75c0 0-0.25-0.917 0.083-1.667s0.333-1.25-0.333-2c1.333-0.083 1.833 0.833 1.833 0.833l0.017 0.106c0.079 0.511-0.185 0.996-0.631 1.259-0.407 0.239-0.844 0.677-0.969 1.469z"></path>
<path fill="#f50057" style="fill: var(--color1, #f50057)" d="M27.753 24.16c0.013-0.14 0.227-2.027-0.253-2.907-1 2.827-2 5.413-4.913 7.247 0.413-0.833 1.080-2.167 1.747-4.167-2 2.667-6 5.333-9 5.5 2.027-1.12 3.167-2.56 3.667-3.5 0 0-1.167 0.333-2.587 0.5 1.92-1.167 3.253-3.247 2.587-6.5-1.333 4.167-3.167 5.5-5.587 5.747-2.413 0.253-4.58-1-4.58-1l0.833-0.080c0 0-2.167-1.667-1.413-3.833 0.033-0.107 0.073-0.207 0.12-0.3 0.547-1.213 2.407-0.6 2.213 0.713v0.007c0 0 0.58 1.58 2.16 1.16 0.507-0.827 0.84-1.667 0.84-1.667l0.247 1.087c0 0 1.167-0.5 1.167-1.42 1 0.38 1.253 0.853 1.313 1.060-0.173-0.933-1.68-7.353-9.66-7.26l-1.393 1.293c-0.093 0.087-0.24 0.013-0.227-0.107l0.107-1.067 0.093-0.093c-0.027 0.007-0.060 0-0.087 0l-0.007 0.093-0.547 0.507c-0.093 0.087-0.24 0.013-0.227-0.107l0.067-0.68c-1.16-0.493-1.267-1.8-1.267-1.8s-1.447-0.407-0.833-2.253c0.333-1 1.133-1.1 1.473-1.020 0.433 0.1 0.88 0.107 1.293-0.060 0.6-0.24 1.367-0.7 1.9-1.587 1-1.667 2.5-2.333 5.747-2.333 4.3 0 6.033 1.32 6.233 1.48-0.12-0.14-0.847-1.107 0.687-2.56 1.513-1.44 1.24-1.78 1.18-1.833 0.227 0.067 3.167 1.067 3.487 4.913 0.333 4-4.333 4.833-4.333 4.833s6 1.167 6.080-4.5c1.173 0.667 3.587 3.167 3.92 8.587 0.327 5.253-2.107 7.767-2.247 7.907z"></path>
<path fill="#f50057" style="fill: var(--color1, #f50057)" d="M5.233 14.573l-0.093 0.093 0.007-0.093c0.027 0 0.060 0.007 0.087 0z"></path>
</symbol>
<symbol id="nodejs" viewBox="0 0 32 32">
<path fill="#21a366" style="fill: var(--color2, #21a366)" d="M16.005 30.279c-0.383 0-0.762-0.1-1.097-0.293l-3.493-2.069c-0.522-0.292-0.267-0.395-0.095-0.455 0.696-0.243 0.837-0.299 1.579-0.721 0.078-0.045 0.18-0.029 0.26 0.019l2.684 1.593c0.097 0.053 0.235 0.053 0.324 0l10.465-6.041c0.097-0.055 0.16-0.167 0.16-0.283v-12.075c0-0.121-0.063-0.228-0.162-0.288l-10.46-6.036c-0.097-0.057-0.225-0.057-0.322 0l-10.459 6.035c-0.101 0.057-0.166 0.17-0.166 0.285v12.076c0 0.115 0.063 0.225 0.163 0.28l2.866 1.655c1.556 0.778 2.507-0.139 2.507-1.061v-11.918c0-0.17 0.133-0.301 0.304-0.301h1.325c0.165 0 0.301 0.131 0.301 0.301v11.924c0 2.075-1.131 3.267-3.099 3.267-0.605 0-1.082 0-2.413-0.655l-2.745-1.582c-0.679-0.393-1.098-1.127-1.098-1.91v-12.076c0-0.786 0.419-1.519 1.097-1.907l10.476-6.043c0.663-0.375 1.543-0.375 2.201 0l10.463 6.046c0.675 0.39 1.097 1.121 1.097 1.907v12.076c0 0.783-0.422 1.514-1.097 1.907l-10.463 6.043c-0.335 0.194-0.715 0.293-1.103 0.293z"></path>
<path fill="#21a366" style="fill: var(--color2, #21a366)" d="M19.237 21.958c-4.579 0-5.539-2.102-5.539-3.865 0-0.167 0.135-0.301 0.303-0.301h1.352c0.149 0 0.275 0.109 0.299 0.256 0.204 1.377 0.812 2.072 3.581 2.072 2.205 0 3.143-0.498 3.143-1.668 0-0.673-0.267-1.173-3.693-1.509-2.866-0.283-4.637-0.914-4.637-3.206 0-2.111 1.781-3.369 4.765-3.369 3.351 0 5.011 1.163 5.221 3.662 0.008 0.087-0.023 0.17-0.081 0.233-0.057 0.060-0.139 0.097-0.223 0.097h-1.359c-0.141 0-0.265-0.099-0.293-0.236-0.327-1.449-1.119-1.912-3.269-1.912-2.407 0-2.687 0.838-2.687 1.467 0 0.762 0.33 0.985 3.578 1.415 3.217 0.427 4.744 1.029 4.744 3.29 0 2.279-1.902 3.586-5.218 3.586z"></path>
</symbol>
<symbol id="linkedin" viewBox="0 0 32 32">
<path d="M26.24 2.56h-20.48c-1.766 0-3.2 1.434-3.2 3.2v20.48c0 1.766 1.434 3.2 3.2 3.2h20.48c1.766 0 3.2-1.434 3.2-3.2v-20.48c0-1.766-1.434-3.2-3.2-3.2zM10.88 12.8v12.16h-3.84v-12.16h3.84zM7.040 9.261c0-0.896 0.768-1.581 1.92-1.581s1.875 0.685 1.92 1.581c0 0.896-0.717 1.619-1.92 1.619-1.152 0-1.92-0.723-1.92-1.619zM24.96 24.96h-3.84c0 0 0-5.926 0-6.4 0-1.28-0.64-2.56-2.24-2.586h-0.051c-1.549 0-2.189 1.318-2.189 2.586 0 0.582 0 6.4 0 6.4h-3.84v-12.16h3.84v1.638c0 0 1.235-1.638 3.718-1.638 2.541 0 4.602 1.747 4.602 5.286v6.874z"></path>
</symbol>
<symbol id="node-js" viewBox="0 0 32 32">
<path d="M21.301 6c-0.157 0-0.301 0.126-0.301 0.301v5.496l-1.246-0.727c-0.078-0.046-0.166-0.068-0.254-0.068s-0.176 0.022-0.254 0.068l-2.994 1.746c-0.156 0.090-0.252 0.257-0.252 0.436v3.496c0 0.18 0.096 0.346 0.252 0.436l2.994 1.746c0.078 0.046 0.166 0.068 0.254 0.068s0.176-0.022 0.254-0.068l2.994-1.746c0.156-0.090 0.252-0.257 0.252-0.436v-9.518c0-0.178-0.095-0.342-0.248-0.432l-1.303-0.758c-0.049-0.028-0.098-0.041-0.148-0.041zM11.5 11.002c-0.088 0-0.175 0.023-0.254 0.068l-2.994 1.746c-0.156 0.090-0.252 0.257-0.252 0.436v3.496c0 0.18 0.096 0.346 0.252 0.436l2.994 1.746c0.157 0.091 0.351 0.091 0.508 0l2.994-1.746c0.156-0.090 0.252-0.257 0.252-0.436v-3.496c0-0.18-0.096-0.346-0.252-0.436l-2.994-1.746c-0.079-0.046-0.166-0.068-0.254-0.068zM27.5 11.002c-0.088 0-0.176 0.022-0.254 0.068l-2.994 1.746c-0.156 0.090-0.252 0.257-0.252 0.436v3.496c0 0.18 0.096 0.346 0.252 0.436l2.904 1.756c0.156 0.095 0.352 0.096 0.51 0.004l1.428-0.83c0.148-0.085 0.149-0.3 0-0.387l-3.094-1.822v-1.795l1.5-0.873 1.5 0.873v1.25c0 0.167 0.14 0.193 0.234 0.137 0.378-0.222 1.518-0.883 1.518-0.883 0.153-0.089 0.248-0.254 0.248-0.432v-0.93c0-0.18-0.096-0.346-0.252-0.436l-2.994-1.746c-0.079-0.046-0.166-0.068-0.254-0.068zM3.5 11.004c-0.088 0-0.176 0.022-0.254 0.068l-2.994 1.744c-0.156 0.091-0.252 0.258-0.252 0.438v4.463c0 0.218 0.236 0.353 0.424 0.244l1.328-0.773c0.153-0.090 0.248-0.254 0.248-0.432v-2.643l1.5-0.875 1.5 0.875v2.643c0 0.178 0.095 0.342 0.248 0.432l1.328 0.773c0.188 0.11 0.424-0.026 0.424-0.244v-4.463c0-0.18-0.096-0.347-0.252-0.438l-2.994-1.744c-0.078-0.046-0.166-0.068-0.254-0.068zM19.5 13.236l1.5 0.875v1.777l-1.5 0.875-1.5-0.875v-1.777l1.5-0.875zM27.5 14.004l-0.857 0.5v0.998l0.857 0.498 0.857-0.498v-0.998l-0.857-0.5zM15.406 17.998c-0.103 0-0.207 0.025-0.297 0.076l-2.813 1.625c-0.185 0.102-0.297 0.303-0.297 0.512v3.246c0 0.209 0.117 0.406 0.297 0.512l0.74 0.422c0.355 0.175 0.486 0.176 0.646 0.176 0.53 0 0.832-0.317 0.832-0.877v-3.207c0-0.049-0.038-0.084-0.082-0.084h-0.355c-0.049 0-0.084 0.040-0.084 0.084v3.207c0 0.243-0.257 0.492-0.676 0.283l-0.77-0.443c-0.025-0.015-0.043-0.045-0.043-0.074v-3.246c0-0.029 0.014-0.063 0.043-0.078l2.813-1.621c0.030-0.015 0.064-0.015 0.088 0l2.814 1.621c0.029 0.015 0.043 0.044 0.043 0.078v3.246c0 0.034-0.019 0.063-0.043 0.078l-2.814 1.627c-0.025 0.015-0.064 0.015-0.088 0l-0.719-0.428c-0.019-0.010-0.049-0.016-0.068-0.006-0.199 0.117-0.239 0.132-0.424 0.195-0.049 0.015-0.116 0.045 0.025 0.123l0.934 0.555c0.093 0.049 0.195 0.078 0.297 0.078 0.107 0 0.211-0.029 0.293-0.082l2.813-1.627c0.185-0.102 0.297-0.303 0.297-0.512v-3.246c0-0.209-0.117-0.405-0.297-0.512l-2.813-1.625c-0.088-0.051-0.19-0.076-0.293-0.076zM19.793 19.496c-0.287 0-0.539 0.232-0.539 0.539 0 0.297 0.242 0.541 0.539 0.541s0.539-0.244 0.539-0.541c0-0.307-0.247-0.544-0.539-0.539zM19.787 19.582c0.254 0 0.459 0.2 0.459 0.453 0 0.248-0.206 0.453-0.459 0.459-0.249 0-0.451-0.206-0.451-0.459s0.203-0.453 0.451-0.453zM19.59 19.729v0.607h0.115v-0.242h0.107c0.044 0 0.054 0.019 0.064 0.053 0 0.005 0.018 0.162 0.023 0.191h0.125c-0.014-0.029-0.024-0.112-0.029-0.162-0.014-0.078-0.019-0.132-0.102-0.137 0.044-0.015 0.117-0.038 0.117-0.15 0-0.161-0.14-0.16-0.213-0.16h-0.209zM19.705 19.826h0.098c0.030 0 0.088-0.001 0.088 0.082 0 0.034-0.015 0.089-0.094 0.088h-0.092v-0.17zM16.16 20.322c-0.803 0-1.279 0.342-1.279 0.906 0 0.618 0.477 0.783 1.246 0.861 0.92 0.092 0.992 0.224 0.992 0.404 0 0.316-0.254 0.447-0.848 0.447-0.745 0-0.909-0.185-0.963-0.555-0.005-0.039-0.040-0.068-0.084-0.068h-0.365c-0.044 0-0.082 0.035-0.082 0.084 0 0.472 0.257 1.037 1.488 1.037 0.903-0.001 1.414-0.351 1.414-0.965 0-0.608-0.409-0.77-1.275-0.887-0.876-0.117-0.963-0.176-0.963-0.381 0-0.17 0.072-0.393 0.719-0.393 0.579 0 0.795 0.127 0.883 0.516 0.010 0.039 0.037 0.063 0.076 0.063h0.365c0.024 0 0.045-0.009 0.059-0.023 0.015-0.019 0.025-0.038 0.020-0.063-0.058-0.672-0.501-0.984-1.402-0.984z"></path>
</symbol>
<symbol id="nextjs" viewBox="0 0 32 32">
<path d="M13.333 15.649v5.351c0 0.552-0.448 1-1 1s-1-0.448-1-1v-8.667c0-0.439 0.287-0.827 0.708-0.957 0.418-0.127 0.876 0.033 1.121 0.397l0.166 0.247 0.005-0.021 10.156 15.031c3.527-2.399 5.844-6.444 5.844-11.031 0-7.364-5.969-13.333-13.333-13.333s-13.333 5.969-13.333 13.333 5.969 13.333 13.333 13.333c2.055 0 3.993-0.479 5.731-1.309l-8.398-12.375zM18.667 11c0-0.552 0.448-1 1-1s1 0.448 1 1v8.527l-2-2.869v-5.657z"></path>
</symbol>
<symbol id="postgresql" viewBox="0 0 32 32">
<path d="M22.527 1.345c-0.96 0-1.793 0.19-2.56 0.383 1.345 0.575 2.178 1.28 2.625 1.6 1.025 0.895 1.6 1.792 2.625 3.265 0.19 0.32 0.51 0.768 0.703 1.47 0.192 0.64 0.192 1.152 0.192 1.665 0 0.705-0.065 1.28-0.13 1.855-0.063 0.45-0.063 0.643-0.125 0.77 0 0.065 0 0.127-0.065 0.255 0 0.32 0 0.45 0.065 0.705 0 0.255 0.063 0.512 0.063 0.96 0.065 0.832 0.065 1.408-0.063 2.11v0.258c-0.13 0.575-0.258 1.152-0.578 1.663 0.065 0.13 0.128 0.192 0.192 0.32 0.32-0.448 0.575-0.895 0.83-1.405 0.77-1.41 1.218-2.625 1.538-3.52 0.575-1.665 0.895-2.883 1.087-3.777 0.448-1.92 0.512-2.815 0.32-3.84 0-0.32-0.128-0.897-0.448-1.473-0.705-1.28-1.793-1.855-2.56-2.24-0.512-0.255-1.857-0.96-3.712-1.022zM8.662 1.627c-0.737-0.015-1.638 0.067-2.647 0.547-0.32 0.13-1.28 0.578-2.047 1.6-0.512 0.64-0.895 1.6-1.087 2.688-0.192 0.96-0.257 2.115 0.127 4.29 0.255 1.535 0.512 2.56 1.025 4.67 0.065 0.258 0.447 1.41 1.28 3.97l0.063 0.128c0.13 0.448 0.513 1.407 1.345 2.367 0.575 0.64 1.087 1.025 1.538 1.025h0.125c0.832 0 1.41-0.64 1.92-1.152 0-0.065 1.217-1.535 1.665-2.047-0.065-0.065-0.19-0.065-0.255-0.13-0.768-0.448-1.345-1.15-1.793-1.92-0.768-1.407-0.705-2.815-0.578-3.52l0.065-1.085c-0.255-1.73-0.19-3.393 0.13-5.058 0.255-1.407 0.575-2.815 1.725-4.287 0.385-0.513 0.832-0.96 1.28-1.28-1.022-0.448-2.11-0.705-3.2-0.768-0.207-0.018-0.435-0.032-0.68-0.038zM16.703 2.175c-0.32 0-0.64 0-0.96 0.065-1.28 0.255-2.495 0.96-3.455 2.175-0.96 1.218-1.215 2.367-1.47 3.713-0.13 0.512-0.13 0.96-0.195 1.473 0.385-0.32 0.898-0.705 1.665-0.897 0.447-0.127 1.6-0.51 2.56 0.065 0.32 0.193 0.768 0.578 1.215 1.665 0.96 2.688 0.003 5.44-0.125 5.695-0.065 0.255-0.193 0.448-0.258 0.575-0.127 0.32-0.255 0.578-0.383 1.090-0.065 0.448-0.13 0.832-0.13 1.28 0.193 0 0.385 0.063 0.575 0.19 0.32 0.32 0.385 0.77 0.45 0.96 0.128 1.025 0.128 2.305 0.128 3.585 0 1.025 0 1.985 0.063 2.625 0.13 1.473 0.578 2.495 1.218 3.008 0.448 0.385 1.023 0.383 1.343 0.448h0.13c0.96 0 2.495-0.64 3.070-1.535 0.32-0.512 0.45-0.96 0.578-1.6 0.065-0.385 0.063-0.575 0.128-0.96 0-0.192 0.065-0.512 0.065-0.895 0-0.32 0.063-0.705 0.128-1.155 0.065-1.087 0.255-2.365 0.32-3.070 0.065-0.832 0.448-1.538 0.767-1.985-0.448-0.065-0.895-0.448-1.15-1.087-0.385-0.705-0.45-0.898-0.515-1.218-0.063-0.255-0.19-0.575-0.64-1.535-0.96-2.175-1.085-2.815-1.085-3.328-0.065-0.705-0.13-1.662 0.64-2.303 1.15-1.025 2.622-0.96 3.39-0.705v-0.13c-0.128-0.51-0.383-0.895-0.575-1.15-0.96-1.473-1.473-2.24-2.37-3.008-0.383-0.32-1.343-1.090-2.75-1.6-0.64-0.192-1.41-0.45-2.37-0.45zM23.777 9.68c-0.465-0.033-1.058 0.047-1.57 0.498-0.255 0.255-0.255 0.768-0.19 1.215 0 0.32 0.063 0.768 1.023 2.945 0.448 1.022 0.575 1.342 0.64 1.6 0.065 0.255 0.128 0.383 0.512 1.085 0.065 0.13 0.128 0.258 0.255 0.385 0.128-0.192 0.192-0.512 0.255-1.025l0.065-0.19c0.128-0.575 0.065-1.025 0.065-1.793 0-0.385-0.065-0.64-0.065-0.832-0.065-0.32-0.065-0.575-0.065-0.96-0.128-0.193-0.128-0.255-0.063-0.385 0-0.127 0.063-0.318 0.128-0.703 0.065-0.512 0.13-0.96 0.13-1.473-0.13-0.065-0.192-0.127-0.32-0.19 0 0-0.337-0.145-0.8-0.178zM13.77 9.932c-0.408-0.047-0.875 0.085-1.162 0.18-0.705 0.193-1.15 0.64-1.47 0.895-0.193 0.193-0.385 0.385-0.578 0.64 0 0.447 0.063 0.897 0.127 1.345v0.065l-0.127 1.28c-0.127 0.575-0.193 1.662 0.447 2.75 0.32 0.64 0.77 1.152 1.345 1.473 0.385 0.255 0.895 0.448 1.47 0.578 0-0.45 0.065-0.962 0.13-1.41 0.127-0.64 0.255-0.96 0.447-1.345 0.065-0.19 0.127-0.317 0.258-0.51 0.063-0.193 0.957-2.625 0.125-4.865-0.19-0.512-0.383-0.832-0.64-0.96-0.11-0.065-0.24-0.1-0.373-0.115zM23.16 10.297c0.168-0.010 0.328 0.005 0.392 0.070 0.192 0.127-0.065 0.447-0.13 0.512-0.063 0.065-0.19 0.193-0.383 0.258-0.255 0.063-0.448-0.13-0.512-0.13-0.065-0.065-0.255-0.255-0.19-0.447 0.063-0.127 0.128-0.127 0.383-0.193 0.095-0.033 0.273-0.063 0.44-0.070zM13.54 10.828c0.215-0.015 0.395 0.068 0.54 0.115 0.193 0.065 0.383 0.13 0.383 0.258 0.065 0.193-0.125 0.32-0.19 0.383-0.193 0.193-0.512 0.195-0.512 0.195-0.32 0-0.512-0.193-0.64-0.385-0.065-0.065-0.127-0.193-0.063-0.32 0.063-0.127 0.19-0.193 0.255-0.193 0.080-0.033 0.155-0.047 0.227-0.053zM25.28 19.2c-0.32 0.448-0.767 1.025-0.832 1.793 0 0.128 0 0.192-0.065 0.32 0.512 0.128 0.962 0.128 1.41 0.065 1.025-0.13 1.727-0.642 1.855-0.77 0.448-0.32 1.025-0.96 0.895-1.215-0.063-0.128-0.255-0.065-1.28 0-0.255 0-1.023 0.192-1.535 0.065h-0.128c-0.128-0.065-0.255-0.13-0.32-0.258zM14.143 20.48c-0.127 0.192-0.318 0.32-0.445 0.448-0.512 0.32-1.155 0.578-1.795 0.705-0.575 0.192-0.895 0.192-0.895 0.385-0.065 0.255 0.575 0.575 0.895 0.703 1.090 0.448 2.178 0.192 2.37 0.128 0.127-0.065 0.447-0.192 0.768-0.385 0-0.703-0.063-1.343-0.127-1.855v-0.065h-0.065c-0.193 0-0.447 0.003-0.705-0.063z"></path>
</symbol>
<symbol id="figma" viewBox="0 0 32 32">
<path d="M16 1.28v8.96h-4.48c-2.467 0-4.48-2.013-4.48-4.48s2.013-4.48 4.48-4.48h4.48zM16 11.52v8.96h-4.48c-2.467 0-4.48-2.013-4.48-4.48s2.013-4.48 4.48-4.48h4.48zM16 21.76v4.48c0 2.467-2.013 4.48-4.48 4.48s-4.48-2.013-4.48-4.48c0-2.467 2.013-4.48 4.48-4.48h4.48zM26.24 5.76c0 2.467-2.013 4.48-4.48 4.48h-4.48v-8.96h4.48c2.467 0 4.48 2.013 4.48 4.48zM21.76 11.52c-2.474 0-4.48 2.006-4.48 4.48s2.006 4.48 4.48 4.48v0c2.474 0 4.48-2.006 4.48-4.48s-2.006-4.48-4.48-4.48v0z"></path>
</symbol>
<symbol id="react" viewBox="0 0 32 32">
<path d="M22.115 2.55c-0.499-0.017-1.021 0.070-1.545 0.24-1.047 0.34-2.145 1.001-3.271 1.917-0.441 0.359-0.887 0.769-1.334 1.205-0.437-0.424-0.873-0.824-1.305-1.175-1.125-0.915-2.22-1.577-3.265-1.916s-2.085-0.349-2.939 0.144c-0.854 0.493-1.365 1.398-1.594 2.473s-0.204 2.354 0.026 3.786c0.080 0.498 0.194 1.020 0.324 1.551-0.488 0.148-0.962 0.303-1.401 0.475-1.326 0.518-2.423 1.138-3.223 1.875s-1.315 1.632-1.315 2.615c0 0.983 0.516 1.876 1.315 2.614s1.896 1.358 3.223 1.876c0.47 0.184 0.979 0.349 1.504 0.505-0.189 0.706-0.342 1.391-0.446 2.040-0.23 1.434-0.255 2.713-0.025 3.79s0.741 1.987 1.599 2.482c0.858 0.495 1.903 0.483 2.95 0.144s2.144-1 3.27-1.916c0.437-0.356 0.88-0.762 1.322-1.192 0.445 0.433 0.889 0.841 1.329 1.199 1.125 0.915 2.221 1.576 3.266 1.915s2.085 0.349 2.939-0.144c0.854-0.493 1.363-1.398 1.593-2.473s0.204-2.353-0.026-3.785c-0.105-0.651-0.258-1.338-0.448-2.046 0.543-0.16 1.067-0.33 1.551-0.519 1.326-0.518 2.423-1.139 3.223-1.876s1.315-1.631 1.315-2.614c0-0.983-0.516-1.878-1.315-2.615s-1.896-1.357-3.223-1.875c-0.446-0.174-0.927-0.332-1.422-0.481 0.131-0.535 0.247-1.061 0.328-1.561 0.23-1.434 0.255-2.714 0.025-3.791s-0.742-1.986-1.6-2.481c-0.429-0.248-0.905-0.368-1.404-0.385zM22.056 3.853c0.313 0.009 0.58 0.083 0.809 0.215 0.457 0.264 0.795 0.777 0.975 1.622s0.174 1.987-0.039 3.311c-0.073 0.453-0.179 0.934-0.299 1.426-1.309-0.315-2.744-0.549-4.273-0.686-0.767-1.063-1.556-2.032-2.351-2.891 0.421-0.411 0.838-0.795 1.246-1.126 1.040-0.846 2.025-1.422 2.848-1.689 0.411-0.133 0.771-0.191 1.084-0.183zM9.911 3.856c0.315-0.009 0.675 0.049 1.088 0.183 0.824 0.267 1.811 0.843 2.852 1.69 0.4 0.325 0.808 0.702 1.22 1.103-0.801 0.866-1.596 1.843-2.369 2.916-1.522 0.14-2.951 0.375-4.254 0.691-0.119-0.49-0.225-0.968-0.297-1.419-0.213-1.325-0.218-2.467-0.037-3.315s0.521-1.365 0.982-1.631c0.231-0.133 0.5-0.209 0.815-0.217zM15.985 7.771c0.521 0.567 1.043 1.188 1.56 1.856-0.508-0.021-1.023-0.034-1.545-0.034-0.533 0-1.057 0.013-1.575 0.035 0.517-0.669 1.039-1.29 1.56-1.857zM16 10.886c0.87 0 1.719 0.036 2.544 0.096 0.568 0.815 1.123 1.681 1.651 2.596 0.465 0.805 0.885 1.608 1.267 2.401-0.387 0.804-0.814 1.618-1.285 2.434-0.415 0.718-0.847 1.4-1.288 2.058-0.932 0.078-1.898 0.121-2.89 0.121-1.016 0-2.004-0.046-2.956-0.128-0.433-0.648-0.858-1.32-1.266-2.026-0.47-0.814-0.895-1.627-1.281-2.429 0.388-0.807 0.815-1.624 1.287-2.442 0.526-0.911 1.079-1.771 1.644-2.582 0.834-0.062 1.692-0.099 2.572-0.099zM20.191 11.143c1.055 0.132 2.046 0.314 2.968 0.534-0.274 0.897-0.61 1.833-1.019 2.8-0.265-0.511-0.54-1.024-0.836-1.537-0.359-0.623-0.734-1.216-1.113-1.796zM11.74 11.152c-0.371 0.569-0.735 1.151-1.088 1.761-0.3 0.52-0.581 1.040-0.849 1.558-0.405-0.961-0.74-1.892-1.011-2.784 0.915-0.22 1.9-0.402 2.947-0.535zM24.425 12.016c0.454 0.137 0.892 0.281 1.294 0.438 1.223 0.477 2.189 1.043 2.816 1.621s0.899 1.13 0.899 1.665c0 0.535-0.272 1.087-0.899 1.665s-1.594 1.144-2.816 1.621c-0.447 0.174-0.937 0.333-1.448 0.483-0.364-1.126-0.828-2.3-1.381-3.499 0.636-1.376 1.149-2.718 1.535-3.994zM7.554 12.023c0.381 1.263 0.888 2.591 1.515 3.954-0.556 1.206-1.023 2.387-1.389 3.519-0.492-0.146-0.966-0.3-1.399-0.469-1.223-0.477-2.189-1.043-2.816-1.621s-0.899-1.13-0.899-1.665c0-0.535 0.272-1.087 0.899-1.665s1.594-1.144 2.816-1.621c0.396-0.155 0.827-0.296 1.272-0.431zM16 12.8c-1.76 0-3.2 1.44-3.2 3.2s1.44 3.2 3.2 3.2c1.76 0 3.2-1.44 3.2-3.2s-1.44-3.2-3.2-3.2zM9.819 17.514c0.269 0.52 0.549 1.042 0.851 1.565 0.236 0.409 0.478 0.808 0.723 1.199-0.86-0.119-1.677-0.27-2.444-0.449 0.244-0.747 0.536-1.523 0.87-2.315zM22.156 17.514c0.335 0.794 0.628 1.571 0.872 2.32-0.77 0.178-1.589 0.329-2.451 0.448 0.248-0.396 0.493-0.799 0.733-1.214 0.3-0.519 0.579-1.037 0.846-1.554zM8.58 21.071c1.158 0.274 2.414 0.485 3.745 0.622 0.889 1.285 1.815 2.44 2.746 3.45-0.417 0.406-0.83 0.788-1.234 1.116-1.040 0.846-2.027 1.421-2.849 1.688s-1.435 0.231-1.893-0.032c-0.457-0.264-0.794-0.777-0.974-1.622s-0.175-1.986 0.037-3.31c0.097-0.601 0.241-1.244 0.42-1.911zM23.399 21.076c0.181 0.671 0.325 1.317 0.422 1.921 0.213 1.325 0.218 2.467 0.038 3.315s-0.519 1.366-0.98 1.633c-0.461 0.266-1.081 0.301-1.905 0.034s-1.811-0.843-2.852-1.69c-0.407-0.331-0.823-0.715-1.242-1.125 0.938-1.014 1.87-2.174 2.765-3.468 1.335-0.136 2.594-0.346 3.755-0.62zM13.995 21.825c0.657 0.036 1.323 0.060 2.005 0.060 0.66 0 1.304-0.023 1.94-0.056-0.65 0.878-1.313 1.675-1.974 2.394-0.66-0.72-1.322-1.519-1.971-2.398z"></path>
</symbol>
<symbol id="redux" viewBox="0 0 32 32">
<path d="M15.36 1.28c-4.588 0-8.32 5.307-8.32 11.831 0 3.37 1.002 6.405 2.599 8.559-0.024 0.123-0.038 0.265-0.038 0.41 0 1.237 1.002 2.239 2.239 2.24h0c1.237 0 2.24-1.003 2.24-2.24s-1.003-2.24-2.24-2.24v0c-0.129 0.001-0.255 0.013-0.377 0.035l0.014-0.002c-1.144-1.705-1.876-4.121-1.876-6.761 0-5.026 2.638-9.271 5.76-9.271 2.636 0 4.921 3.032 5.57 7 0.91 0.261 1.817 0.614 2.705 1.041-0.434-5.948-3.979-10.601-8.275-10.601zM14.4 10.88c-1.237 0-2.24 1.003-2.24 2.24s1.003 2.24 2.24 2.24v0c0.878-0 1.637-0.506 2.004-1.241l0.006-0.013c2.080-0.13 4.483 0.511 6.703 1.841 4.39 2.632 6.778 7.235 5.213 10.051-0.515 0.925-1.442 1.591-2.681 1.922-1.785 0.477-3.974 0.235-6.13-0.633-0.684 0.636-1.436 1.233-2.258 1.782 2.13 1.076 4.382 1.646 6.464 1.646 0.902 0 1.773-0.106 2.586-0.324 1.924-0.515 3.397-1.605 4.256-3.151 2.294-4.127-0.401-10.053-6.134-13.49-2.728-1.636-5.75-2.39-8.406-2.172-0.408-0.431-0.984-0.699-1.622-0.7h-0zM5.862 14.928c-4.532 3.501-6.476 8.624-4.424 12.315 0.86 1.546 2.332 2.636 4.256 3.151 0.813 0.218 1.683 0.324 2.586 0.324 2.432 0 5.101-0.772 7.531-2.229 2.719-1.63 4.729-3.821 5.869-6.113 1.121-0.122 1.999-1.064 1.999-2.216 0-1.235-1.005-2.24-2.24-2.24s-2.24 1.005-2.24 2.24c0 0.346 0.085 0.67 0.225 0.962-0.924 1.904-2.648 3.803-4.929 5.17-2.749 1.649-5.792 2.258-8.14 1.629-1.239-0.332-2.165-0.997-2.68-1.922-1.238-2.227 0.001-5.568 2.743-8.171-0.263-0.922-0.451-1.892-0.556-2.9z"></path>
</symbol>
<symbol id="git" viewBox="0 0 32 32">
<path d="M29.948 14.137l-12.085-12.085c-0.512-0.515-1.188-0.772-1.863-0.772s-1.35 0.258-1.863 0.772l-2.39 2.39 2.957 2.957c0.982-0.577 2.262-0.452 3.105 0.39s0.965 2.122 0.387 3.103l2.907 2.908c0.983-0.578 2.262-0.453 3.105 0.39 1 1 1 2.62 0 3.62s-2.62 1-3.62 0c-0.843-0.843-0.968-2.123-0.39-3.105l-2.907-2.908c-0.207 0.123-0.425 0.213-0.652 0.27v7.862c1.102 0.285 1.92 1.277 1.92 2.47 0 1.415-1.145 2.56-2.56 2.56s-2.56-1.145-2.56-2.56c0-1.192 0.818-2.185 1.92-2.47v-7.863c-0.428-0.11-0.835-0.322-1.17-0.658-0.842-0.842-0.965-2.123-0.387-3.103l-2.96-2.96-8.79 8.79c-1.030 1.027-1.030 2.698 0 3.725l12.085 12.085c0.512 0.515 1.188 0.773 1.863 0.773s1.35-0.258 1.863-0.773l12.085-12.085c1.030-1.027 1.030-2.697 0-3.725z"></path>
</symbol>
<symbol id="sass" viewBox="0 0 32 32">
<path d="M16 1.28c-8.116 0-14.72 6.604-14.72 14.72s6.604 14.72 14.72 14.72c8.116 0 14.72-6.604 14.72-14.72s-6.604-14.72-14.72-14.72zM19.615 5.761c2.447-0.041 4.463 0.85 4.885 2.504 0.604 2.366-1.45 5.196-4.080 6.213-2.348 0.908-4.289 0.765-5.088 0.504-0.907-0.298-1.438-0.896-1.568-1.234-0.051-0.132-0.139-0.353 0-0.43 0.085-0.047 0.118-0.037 0.346 0.215 0.217 0.239 1.088 0.881 2.741 0.695 4.341-0.486 6.955-3.86 6.129-5.675-0.579-1.27-3.924-1.843-8.104 0.24-5.103 2.543-5.379 4.639-5.423 5.435-0.12 2.189 2.702 3.341 4.229 4.97 0.036 0.038 0.070 0.077 0.105 0.116 0.462-0.172 1.102-0.269 2.119-0.286 2.469-0.042 3.864 1.585 3.806 3.040-0.045 1.146-1.097 1.619-1.293 1.651-0.142 0.024-0.22 0.029-0.24-0.082-0.014-0.077 0.037-0.113 0.204-0.216s0.665-0.444 0.754-1.065c0.089-0.621-0.376-2.105-2.753-2.383-0.842-0.099-1.505-0.032-2.074 0.119 0.412 0.908 0.492 2.736-0.456 4.15-0.982 1.466-2.811 2.356-4.593 1.86-0.575-0.16-1.444-1.347-0.695-3.004 0.71-1.57 3.745-3.106 4.159-3.31v-0.008c-1.406-1.21-4.826-2.841-5.308-5.338-0.137-0.707 0.194-2.401 2.274-4.346 1.749-1.636 4.182-2.888 6.429-3.686 1.18-0.419 2.38-0.63 3.492-0.649zM13.311 20.526c-0.042 0.023-0.083 0.046-0.124 0.067l0.001 0.005c0.001-0.001-1.412 0.666-2.394 1.704-0.913 0.964-1.166 2.175-0.658 2.47 0.472 0.273 1.57-0.050 2.357-0.909 0.258-0.282 0.469-0.587 0.626-0.913 0.031-0.065 0.061-0.131 0.088-0.198s0.053-0.134 0.075-0.203c0.204-0.616 0.225-1.296 0.027-2.025z"></path>
</symbol>
<symbol id="javascript" viewBox="0 0 32 32">
<path d="M27.735 2.56h-23.468c-0.942 0-1.708 0.765-1.708 1.708v23.465c0 0.942 0.765 1.707 1.708 1.707h23.465c0.942 0 1.707-0.765 1.707-1.705v-23.468c0-0.942-0.765-1.708-1.705-1.708zM17.28 23.157c0 2.558-1.5 3.723-3.69 3.723-1.98 0-3.408-1.328-3.99-2.56l2.012-1.218c0.387 0.688 0.977 1.218 1.828 1.218 0.813 0 1.28-0.317 1.28-1.552v-8.047h2.56zM22.832 26.88c-2.268 0-3.555-1.143-4.273-2.56l1.92-1.28c0.523 0.855 1.093 1.672 2.297 1.672 1.012 0 1.543-0.505 1.543-1.205 0-0.835-0.55-1.133-1.663-1.62l-0.61-0.262c-1.762-0.75-2.935-1.69-2.935-3.68 0-1.83 1.398-3.225 3.578-3.225 1.552 0 2.668 0.54 3.473 1.955l-1.9 1.223c-0.42-0.753-0.87-1.047-1.573-1.047-0.715 0-1.168 0.455-1.168 1.047 0 0.733 0.453 1.027 1.5 1.483l0.61 0.262c2.078 0.887 3.247 1.795 3.247 3.835 0 2.198-1.727 3.402-4.047 3.402z"></path>
</symbol>
<symbol id="typescript" viewBox="0 0 32 32">
<path d="M28.8 2.56h-25.6c-0.354 0-0.64 0.287-0.64 0.64v25.6c0 0.353 0.286 0.64 0.64 0.64h25.6c0.354 0 0.64-0.287 0.64-0.64v-25.6c0-0.353-0.286-0.64-0.64-0.64zM18.56 16.925h-3.2v9.955h-2.56v-9.955h-3.2v-2.205h8.96v2.205zM19.277 26.312v-2.661c0 0 1.453 1.096 3.197 1.096s1.677-1.14 1.677-1.297c0-1.655-4.941-1.655-4.941-5.322 0-4.986 7.2-3.019 7.2-3.019l-0.090 2.371c0 0-1.208-0.805-2.572-0.805s-1.856 0.648-1.856 1.341c0 1.789 4.986 1.61 4.986 5.21 0.001 5.545-7.602 3.085-7.602 3.085z"></path>
</symbol>
<symbol id="css" viewBox="0 0 32 32">
<path d="M5.12 3.84l1.92 21.76 8.96 2.56 8.96-2.56 1.92-21.76zM10.752 17.92h2.56l0.063 1.6 2.625 0.895 2.625-0.895 0.19-2.88h-5.63l-0.13-2.56h5.89l0.19-2.56h-8.83l-0.193-2.56h11.713l-0.32 5.12-0.45 7.36-5.055 1.665-5.055-1.665z"></path>
</symbol>
<symbol id="html" viewBox="0 0 32 32">
<path d="M28.975 1.488c-0.12-0.133-0.293-0.208-0.473-0.208h-25.005c-0.18 0-0.353 0.075-0.473 0.208-0.123 0.133-0.183 0.31-0.165 0.49l2.253 25.233c0.022 0.265 0.207 0.485 0.463 0.56l10.248 2.925c0.055 0.017 0.115 0.025 0.175 0.025s0.118-0.008 0.175-0.025l10.255-2.925c0.255-0.075 0.438-0.295 0.462-0.56l2.25-25.233c0.017-0.18-0.043-0.357-0.165-0.49zM23.582 10.188h-12.040l0.287 3.258h11.463l-0.86 9.627-6.438 1.945-0.063-0.020-6.363-1.927-0.348-3.922h3.117l0.135 1.523 3.557 0.745 3.492-0.745 0.372-4.12h-10.908l-0.848-9.475h15.717z"></path>
</symbol>
</defs>
<symbol  id="react-hook-form" viewBox="0 0 100 100">
<path d="M73.56,13.32H58.14a8.54,8.54,0,0,0-16.27,0H26.44a11,11,0,0,0-11,11V81.63a11,11,0,0,0,11,11H73.56a11,11,0,0,0,11-11V24.32A11,11,0,0,0,73.56,13.32Zm-30.92,2a1,1,0,0,0,1-.79,6.54,6.54,0,0,1,12.78,0,1,1,0,0,0,1,.79h5.38v6.55a3,3,0,0,1-3,3H40.25a3,3,0,0,1-3-3V15.32ZM82.56,81.63a9,9,0,0,1-9,9H26.44a9,9,0,0,1-9-9V24.32a9,9,0,0,1,9-9h8.81v6.55a5,5,0,0,0,5,5h19.5a5,5,0,0,0,5-5V15.32h8.81a9,9,0,0,1,9,9Z"></path>
<path style="transform:translateX(-25px)" d="M71.6,45.92H54a1,1,0,0,0,0,2H71.6a1,1,0,0,0,0-2Z"></path>
<path d="M71.6,45.92H54a1,1,0,0,0,0,2H71.6a1,1,0,0,0,0-2Z"></path>
<path style="transform:translateX(-25px)" d="M71.1,69.49H53.45a1,1,0,1,0,0,2H71.1a1,1,0,0,0,0-2Z"></path>
<path d="M71.1,69.49H53.45a1,1,0,1,0,0,2H71.1a1,1,0,0,0,0-2Z"></path>
</symbol>
<symbol id="mongoDB" viewBox="0 0 23 32">
<path d="M11.842 9.805s-0.085 0.446-0.246 0.582c-1.107 0.934-1.649 2.089-2.038 3.024-0.591 1.419-0.409 3.283 0 4.502 0.421 1.255 2.035 2.606 2.094 2.656l0.174-7.017 0.467 7.005-0.636 0.017c0.123 0.337 0.124 1.268 0.124 1.268l0.333 0.127c0.007-0.609 0.007-1.132 0.189-1.425l0.055-0.055s0.653-0.56 0.963-0.941c0.253-0.31 0.52-0.67 0.694-1.030 0.161-0.334 0.316-0.67 0.403-1.030 0.146-0.609 0.227-1.233 0.202-1.859-0.026-0.635-0.149-1.256-0.358-1.859-0.212-0.612-0.47-1.208-0.829-1.747-0.329-0.494-0.812-0.873-1.142-1.366-0.178-0.266-0.448-0.851-0.448-0.851z"></path>
</symbol>
<symbol id="postman" viewBox="0 0 32 32">
<path d="M18.036 0.132c-8.763-1.124-16.78 5.068-17.904 13.832-1.124 8.763 5.067 16.779 13.831 17.904 8.764 1.124 16.783-5.068 17.904-13.832 1.125-8.763-5.065-16.779-13.831-17.904zM21.331 10.112c-0.309 0.004-0.588 0.131-0.791 0.333v0l-5.937 5.937-1.267-1.267c5.852-5.835 6.907-5.891 7.995-5.004zM14.847 16.593l5.92-5.92c0.151-0.158 0.363-0.256 0.598-0.256 0.457 0 0.827 0.37 0.827 0.827 0 0.254-0.114 0.481-0.294 0.633l-0.001 0.001-6.265 5.5zM15.287 17.519l-1.467 0.317c-0.005 0.001-0.011 0.002-0.018 0.002-0.031 0-0.058-0.018-0.072-0.044l-0-0c-0.007-0.012-0.011-0.025-0.011-0.040 0-0.022 0.009-0.043 0.024-0.057v0l0.86-0.86zM11.549 16.907l1.563-1.563 1.172 1.171-2.639 0.568c-0.007 0.002-0.016 0.003-0.025 0.003-0.039 0-0.072-0.022-0.088-0.055l-0-0.001c-0.010-0.015-0.015-0.033-0.015-0.052 0-0.029 0.013-0.054 0.032-0.072l0-0zM6.688 24.984c-0.052-0.005-0.092-0.048-0.092-0.101 0-0.003 0-0.007 0-0.010l-0 0c0.003-0.024 0.013-0.045 0.029-0.061v0h0.003l1.261-1.261 1.629 1.629zM9.921 23.309c-0.098 0.052-0.164 0.153-0.164 0.27 0 0.025 0.003 0.050 0.009 0.073l-0-0.002 0.271 1.153c0.003 0.012 0.005 0.026 0.005 0.040 0 0.092-0.075 0.167-0.167 0.167-0.047 0-0.089-0.019-0.119-0.050l-0-0h-0.004l-1.637-1.639 5.016-5.011 2.427-0.524 1.165 1.165c-1.673 1.469-3.961 2.935-6.8 4.357zM16.96 18.739h-0.003l-1.119-1.119 6.265-5.5c0.058-0.052 0.11-0.107 0.157-0.167l0.002-0.003c-0.197 1.793-2.705 4.327-5.303 6.788zM21.836 10.125l-0.004-0.003c-0.437-0.439-0.707-1.045-0.707-1.714 0-1.342 1.088-2.429 2.429-2.429 0.594 0 1.138 0.213 1.561 0.567l-0.004-0.003-2.147 2.151c-0.029 0.029-0.047 0.069-0.047 0.113s0.018 0.084 0.047 0.113v0l1.663 1.663c-0.314 0.159-0.685 0.253-1.077 0.253-0.669 0-1.275-0.271-1.713-0.71v0zM25.273 10.125c-0.107 0.106-0.226 0.202-0.353 0.285l-0.009 0.005h-0.001l-1.609-1.609 2.044-2.044c0.881 0.96 0.849 2.443-0.072 3.363zM25.14 8.067c-0.048 0.035-0.079 0.091-0.079 0.154 0 0.020 0.003 0.039 0.008 0.056l-0-0.001c0.036 0.072 0.057 0.156 0.057 0.246 0 0.135-0.048 0.259-0.129 0.355l0.001-0.001c-0.025 0.032-0.040 0.072-0.040 0.116 0 0.059 0.028 0.112 0.071 0.146l0 0c0.031 0.024 0.069 0.039 0.112 0.040h0c0.057-0.001 0.107-0.026 0.141-0.066l0-0c0.133-0.159 0.213-0.365 0.213-0.589 0-0.15-0.036-0.292-0.1-0.417l0.002 0.005c-0.034-0.048-0.089-0.079-0.151-0.079-0.040 0-0.078 0.013-0.108 0.035l0.001-0z"></path>
</symbol>
<symbol id="telegram" viewBox="0 0 32 32">
<path d="M31.88 5.053l-4.813 22.733c-0.333 1.613-1.307 2-2.667 1.253l-7.333-5.427-3.547 3.427c-0.4 0.4-0.733 0.747-1.467 0.747-0.96 0-0.8-0.36-1.12-1.267l-2.533-8.253-7.267-2.267c-1.573-0.467-1.587-1.547 0.347-2.333l28.347-10.933c1.293-0.573 2.533 0.32 2.040 2.307z"></path>
</symbol>
<symbol id="github" viewBox="0 0 32 32">
<path d="M16 0.396c-8.84 0-16 7.164-16 16 0 7.071 4.584 13.067 10.94 15.18 0.8 0.151 1.093-0.344 1.093-0.769 0-0.38-0.013-1.387-0.020-2.72-4.451 0.965-5.389-2.147-5.389-2.147-0.728-1.847-1.78-2.34-1.78-2.34-1.449-0.992 0.112-0.972 0.112-0.972 1.607 0.112 2.451 1.648 2.451 1.648 1.427 2.447 3.745 1.74 4.66 1.331 0.144-1.035 0.556-1.74 1.013-2.14-3.553-0.4-7.288-1.776-7.288-7.907 0-1.747 0.62-3.173 1.647-4.293-0.18-0.404-0.72-2.031 0.14-4.235 0 0 1.34-0.429 4.4 1.64 1.28-0.356 2.64-0.532 4-0.54 1.36 0.008 2.72 0.184 4 0.54 3.040-2.069 4.38-1.64 4.38-1.64 0.86 2.204 0.32 3.831 0.16 4.235 1.020 1.12 1.64 2.547 1.64 4.293 0 6.147-3.74 7.5-7.3 7.893 0.56 0.48 1.080 1.461 1.080 2.96 0 2.141-0.020 3.861-0.020 4.381 0 0.42 0.28 0.92 1.1 0.76 6.401-2.099 10.981-8.099 10.981-15.159 0-8.836-7.164-16-16-16z"></path>
</symbol>
<symbol id="styled-components" viewBox="0 0 32 32">
<path d="M21.619 9.016l-0.1 0.521c-0.155 0.988-0.099 1.271 0.325 1.637l0.409 0.339-0.424 1.891c-0.253 1.128-0.564 2.073-0.761 2.384-0.169 0.268-0.367 0.663-0.409 0.875-0.071 0.253-0.311 0.508-0.677 0.733-0.324 0.184-0.96 0.677-1.411 1.073-0.36 0.324-0.608 0.523-0.743 0.608l-0.44 0.348c-0.141 0.227-0.221 0.409-0.252 0.548-0.031 0.143-0.013 0.237 0.032 0.307 0.044 0.067 0.12 0.113 0.224 0.143 0.087 0.021 0.187 0.034 0.29 0.034 0.030 0 0.060-0.001 0.090-0.003l-0.004 0c0.309-0.022 0.596-0.075 0.871-0.157l-0.028 0.007c0.093-0.025 0.167-0.049 0.231-0.071 0.099-0.121 0.327-0.351 0.731-0.749 1.072-1.057 1.481-1.636 1.059-1.48-0.156 0.056-0.085-0.085 0.183-0.368 0.565-0.551 0.889-1.383 1.567-3.992 0.536-2.060 0.536-2.089 0.931-2.089 0.185 0 0.709 0.032 0.709 0.032v-2.571h-1.203zM26.737 13.236c-0.085 0-0.227 0.128-0.311 0.269-0.155 0.253 0.028 0.408 2.356 1.861 1.383 0.876 2.497 1.623 2.469 1.68-0.028 0.041-1.157 0.776-2.511 1.623-2.456 1.523-2.469 1.537-2.244 1.848 0.283 0.367 0 0.493 3.188-1.496l2.315-1.481v-1.115l-2.583-1.595c-1.396-0.875-2.609-1.58-2.68-1.595zM5.291 13.392c-0.071 0-1.284 0.72-2.68 1.58l-2.611 1.595v1.115l2.596 1.623c1.44 0.888 2.653 1.623 2.709 1.623s0.169-0.128 0.283-0.283c0.169-0.268 0.027-0.381-2.357-1.891-2.271-1.425-2.511-1.623-2.284-1.777 0.141-0.099 1.213-0.763 2.371-1.481 2.639-1.623 2.497-1.511 2.285-1.849-0.084-0.14-0.227-0.267-0.311-0.253zM16.869 13.423c-0.389-0.003-1.227 0.591-3.733 2.637-0.108 0.257-0.117 0.435-0.068 0.549 0.032 0.079 0.091 0.133 0.172 0.173 0.080 0.040 0.184 0.064 0.299 0.073 0.228 0.020 0.497-0.016 0.715-0.059l0.147-0.033c0.050-0.067 0.115-0.12 0.189-0.156l0.003-0.001c0.155-0.085 0.804-0.677 1.453-1.312 1.143-1.157 1.411-1.68 0.945-1.849-0.035-0.014-0.076-0.023-0.118-0.023-0.001 0-0.001 0-0.002 0h0zM19.797 14.227c-0.343 0.009-0.96 0.407-2.017 1.251-0.531 0.431-0.867 0.663-1.047 0.711l-0.699 0.552c-0.263 0.48-0.301 0.777-0.232 0.941 0.036 0.082 0.101 0.145 0.182 0.178l0.002 0.001c0.093 0.038 0.202 0.060 0.315 0.060 0.002 0 0.003 0 0.005 0h-0c0.277-0.003 0.542-0.044 0.794-0.119l-0.021 0.005c0.164-0.044 0.293-0.086 0.42-0.133l-0.032 0.010 0.039-0.016 0.071-0.037c0.133-0.172 0.44-0.496 0.824-0.869 1.213-1.171 1.833-2.003 1.707-2.313-0.057-0.151-0.156-0.227-0.311-0.221zM16.565 15.667c-0.099 0.011-0.32 0.181-0.719 0.531-0.576 0.509-1.204 0.803-1.421 0.672-0.015 0.005-0.067 0.016-0.118 0.026l-0.034 0.006c-0.221 0.044-0.497 0.080-0.744 0.060-0.123-0.008-0.238-0.038-0.342-0.086l0.006 0.002c-0.1-0.047-0.179-0.126-0.223-0.224l-0.001-0.003c-0.049-0.12-0.049-0.269 0.007-0.46l-0.867 0.712-1.961 1.623v2.631l6.427-5.063c-0-0.004-0-0.008-0-0.012 0-0.054 0.008-0.106 0.022-0.156l-0.001 0.004c0.049-0.179 0.047-0.269-0.031-0.261zM19.331 16.519c-0.097 0-0.26 0.137-0.52 0.413-0.353 0.377-0.909 0.743-1.204 0.817l-0.045 0.024c-0.029 0.013-0.077 0.032-0.126 0.050l-0.020 0.006c-0.080 0.027-0.184 0.059-0.304 0.091-0.24 0.065-0.539 0.125-0.805 0.119-0.132-0-0.258-0.027-0.373-0.074l0.006 0.002c-0.11-0.046-0.197-0.131-0.244-0.237l-0.001-0.003c-0.077-0.185-0.047-0.445 0.123-0.815l-5.669 4.465v1.607h2.491l5.283-4.149c0.137-0.152 0.344-0.36 0.623-0.62 0.747-0.692 0.916-0.931 0.916-1.284 0-0.275-0.031-0.413-0.128-0.413zM20.588 19.119l-0.452 0.451c-0.253 0.24-0.705 0.536-1.015 0.663l-0.061 0.027-0.004 0.007-0.013 0.013c-0.012 0.009-0.017 0.011-0.027 0.015-0.091 0.037-0.216 0.079-0.344 0.116l-0.032 0.008c-0.254 0.077-0.549 0.132-0.854 0.153l-0.013 0.001c-0.026 0.002-0.057 0.003-0.088 0.003-0.115 0-0.227-0.014-0.335-0.041l0.009 0.002c-0.12-0.027-0.222-0.096-0.29-0.191l-0.001-0.001c-0.064-0.099-0.083-0.231-0.047-0.393 0.032-0.127 0.075-0.238 0.131-0.341l-0.004 0.008-4.263 3.368h5.669l0.677-0.776c0.931-1.085 1.355-1.861 1.355-2.525z"></path>
</symbol>
</svg>
